# xmcd
#
# Track frame offsets:
# 150
# 13568
# 26380
# 39280
# 52643
# 65624
# 78359
# 91084
# 104517
# 115484
# 128576
# 142711
# 154647
# 167274
# 179386
# 192699
# 204189
# 217247
# 229846
# 241850
# 254913
# 266195
# 278325
# 290245
#
# Disc length: 4039 seconds
#
#
# Revision: 0
# Processed by: cddbd v1.5.2PL0 Copyright (c) Steve Scherf et al.
# Submitted via: FreeRIP 2.944 
#
DISCID=4b0fc518
DTITLE=Wynonie Harris - Jump Blues Magic
DYEAR=1900
DGENRE=R&B
TTITLE0=Hurry, hurry
TTITLE1=Who threw the whiskey in the well?
TTITLE2=Around the clock part 1
TTITLE3=Around the clock part 2
TTITLE4=Cock-a-doodle doo
TTITLE5=Yonder goes my baby
TTITLE6=Wynonie´s blues
TTITLE7=Here comes the blues
TTITLE8=Straighten him out
TTITLE9=Young man´s blues
TTITLE10=Baby, look at you
TTITLE11=Gone with the wind
TTITLE12=Somebody changed the lock on my door
TTITLE13=That´s the stuff you gotta watch
TTITLE14=Good morning, Corrinne
TTITLE15=Hey-ba-ba-re-bop part 1
TTITLE16=Hey-ba-ba-re-bop part 2
TTITLE17=In the evenin´blues
TTITLE18=Playful baby
TTITLE19=Papa tree top
TTITLE20=Dig this boogie
TTITLE21=Lightning struck the poorhouse
TTITLE22=Drinkin´by myself
TTITLE23=My baby´s barrelhouse
EXTD=
EXTT0=
EXTT1=
EXTT2=
EXTT3=
EXTT4=
EXTT5=
EXTT6=
EXTT7=
EXTT8=
EXTT9=
EXTT10=
EXTT11=
EXTT12=
EXTT13=
EXTT14=
EXTT15=
EXTT16=
EXTT17=
EXTT18=
EXTT19=
EXTT20=
EXTT21=
EXTT22=
EXTT23=
PLAYORDER=
